<svg preserveAspectRatio="none" width="100%" height="100%" overflow="visible" style="display: block;" viewBox="0 0 16.9848 16.9842" fill="none" xmlns="http://www.w3.org/2000/svg">
<path id="Union" d="M16.9848 8.49238C16.9848 9.60754 16.7587 10.7118 16.3197 11.7421C15.8808 12.7723 15.2372 13.7083 14.4262 14.4969C13.615 15.2854 12.6518 15.9114 11.5919 16.3382C10.5321 16.7649 9.3962 16.9842 8.2491 16.9842C7.10193 16.9842 5.96554 16.765 4.90569 16.3382C3.84592 15.9114 2.88311 15.2854 2.07199 14.4969C1.2609 13.7083 0.617466 12.7723 0.178488 11.7421C-0.546504 10.0405 1.04919 8.49238 2.94369 8.49238H10.1825C11.9076 8.49238 13.371 7.01228 12.3719 5.64499C11.7642 4.81327 10.9049 4.1859 9.91395 3.84995C8.92314 3.51411 7.84933 3.48617 6.84147 3.77007C6.42734 3.88674 6.03276 4.05372 5.6663 4.26539C4.79315 4.76973 3.64405 4.93722 2.84861 4.32329C2.05304 3.70927 1.91053 2.566 2.6945 1.93805C3.60748 1.20675 4.66882 0.659299 5.81732 0.335713C7.55853 -0.154829 9.41392 -0.10685 11.1257 0.473481C12.8374 1.05382 14.3208 2.13768 15.3706 3.57442C16.4204 5.0112 16.9848 6.73002 16.9848 8.49238Z" fill="var(--fill-0, #2B59FF)"/>
</svg>
