<svg preserveAspectRatio="none" width="100%" height="100%" overflow="visible" style="display: block;" viewBox="0 0 132 109.9" fill="none" xmlns="http://www.w3.org/2000/svg">
<g id="Group 824">
<path id="Vector" d="M123.2 29.7C125.464 29.7 127.3 27.8644 127.3 25.6C127.3 23.3356 125.464 21.5 123.2 21.5C120.936 21.5 119.1 23.3356 119.1 25.6C119.1 27.8644 120.936 29.7 123.2 29.7Z" fill="var(--fill-0, #EAEEF9)"/>
<path id="Vector_2" d="M129.2 13.6C130.746 13.6 132 12.3464 132 10.8C132 9.2536 130.746 8 129.2 8C127.654 8 126.4 9.2536 126.4 10.8C126.4 12.3464 127.654 13.6 129.2 13.6Z" fill="var(--fill-0, #EAEEF9)"/>
<path id="Vector_3" d="M12.5 32.6C14.0464 32.6 15.3 31.3464 15.3 29.8C15.3 28.2536 14.0464 27 12.5 27C10.9536 27 9.70001 28.2536 9.70001 29.8C9.70001 31.3464 10.9536 32.6 12.5 32.6Z" fill="var(--fill-0, #EAEEF9)"/>
<path id="Vector_4" d="M17.7 93.5001C20.5719 93.5001 22.9 91.172 22.9 88.3001C22.9 85.4282 20.5719 83.1001 17.7 83.1001C14.8281 83.1001 12.5 85.4282 12.5 88.3001C12.5 91.172 14.8281 93.5001 17.7 93.5001Z" fill="var(--fill-0, #EAEEF9)"/>
<g id="Group">
<g id="Vector_5" filter="url(#filter0_d_0_220)">
<path d="M113.7 30.3H27C25.1 30.3 23.6 28.8 23.6 26.9V7.4C23.6 5.5 25.1 4 27 4H113.6C115.5 4 117 5.5 117 7.4V26.9C117.1 28.8 115.5 30.3 113.7 30.3Z" fill="var(--fill-0, white)"/>
</g>
<g id="Group_2">
<path id="Vector_6" d="M44.6 17.1C44.6 19.3 43.6 21.3 42.1 22.7C40.8 23.9 39 24.6 37.1 24.6C35.2 24.6 33.4 23.9 32.1 22.7C30.5 21.3 29.6 19.3 29.6 17.1C29.6 13 33 9.6 37.1 9.6C41.2 9.6 44.6 13 44.6 17.1Z" fill="var(--fill-0, #DCE1EE)"/>
<g id="User male 3">
<path id="Vector_7" d="M42.1 22.7C40.8 23.9 39 24.6 37.1 24.6C35.2 24.6 33.4 23.9 32.1 22.7C32.7 22.5 33.4 22.2 34.3 21.8C34.5 21.7 34.7 21.5 34.8 21.3C34.9 21.2 34.9 21 34.9 20.9V19L34.8 18.9C34.6 18.7 34.5 18.4 34.5 18.1L34.3 18C33.8 18.1 33.9 17.6 33.7 16.6C33.7 16.2 33.7 16.1 33.9 16L34.1 15.8C33.2 13.7 33.6 12.4 34.6 11.9C34.3 11.2 34.3 11 34.3 11C34.3 11 36.3 11.3 36.9 11.2C37.8 11 39.1 11.2 39.6 12.4C40.4 12.7 40.7 13.2 40.8 13.8C40.9 14.7 40.4 15.7 40.3 16C40.4 16.1 40.5 16.2 40.4 16.5C40.3 17.4 40.3 18 39.8 17.9L39.4 18.8C39.4 18.9 39.4 18.9 39.4 19C39.4 19.1 39.4 19.4 39.4 21C39.4 21.2 39.5 21.4 39.5 21.5C39.6 21.7 39.8 21.8 39.9 21.9C40.8 22.2 41.5 22.5 42.1 22.7Z" fill="var(--fill-0, white)"/>
<g id="Group_3">
<path id="Vector_8" d="M40.3263 16.1C40.3263 15.8918 40.2222 15.5796 40.1181 15.3714V15.2673C39.7018 14.4347 38.8691 14.1224 38.0365 14.1224C35.9548 14.0184 35.7467 14.4347 35.0181 13.8102C35.2263 14.1224 35.2263 14.6429 34.914 15.2673C34.7059 15.6837 34.2895 15.8918 33.8732 15.9959C32.9365 13.8102 33.3528 12.4571 34.3936 11.9367C34.0814 11.2082 34.0814 11 34.0814 11C34.0814 11 36.163 11.3122 36.7875 11.2082C37.7242 11 39.0773 11.2082 39.5977 12.4571C40.4304 12.7694 40.7426 13.2898 40.8467 13.9143C40.9508 14.6429 40.4304 15.6837 40.3263 16.1Z" fill="var(--fill-0, #A2ABBC)"/>
</g>
<path id="Vector_9" d="M39.5 21.5V21.9H34.8V21.4C34.9 21.3 34.9 21.1 34.9 21V19.1L34.8 19V18.9C34.9 19.1 35 19.2 35.2 19.4L36.7 20.4C37 20.7 37.5 20.7 37.9 20.4L39.3 19.2L39.4 19.1C39.4 19.2 39.4 19.5 39.4 21.1C39.3 21.2 39.4 21.3 39.5 21.5Z" fill="url(#paint0_linear_0_220)"/>
</g>
</g>
<g id="Group_4">
<path id="Vector_10" d="M69.2 14.9H50C49.5 14.9 49.2 14.5 49.2 14.1V11.6C49.2 11.1 49.6 10.8 50 10.8H69.2C69.7 10.8 70 11.2 70 11.6V14.1C70 14.6 69.7 14.9 69.2 14.9Z" fill="var(--fill-0, #CED6E2)"/>
<path id="Vector_11" d="M92 23.4H50C49.5 23.4 49.2 23 49.2 22.6V20.1C49.2 19.6 49.6 19.3 50 19.3H92C92.5 19.3 92.8 19.7 92.8 20.1V22.6C92.8 23.1 92.4 23.4 92 23.4Z" fill="var(--fill-0, #CED6E2)"/>
</g>
</g>
<g id="Group_5">
<g id="Vector_12" filter="url(#filter1_d_0_220)">
<path d="M113.7 95.9001H27C25.1 95.9001 23.6 94.4001 23.6 92.5001V73.0001C23.6 71.1001 25.1 69.6001 27 69.6001H113.6C115.5 69.6001 117 71.1001 117 73.0001V92.5001C117.1 94.4001 115.5 95.9001 113.7 95.9001Z" fill="var(--fill-0, white)"/>
</g>
<g id="Group_6">
<path id="Vector_13" d="M44.6 82.7001C44.6 84.9001 43.6 86.9001 42.1 88.3001C40.8 89.5001 39 90.2001 37.1 90.2001C35.2 90.2001 33.4 89.5001 32.1 88.3001C30.5 86.9001 29.6 84.9001 29.6 82.7001C29.6 78.6001 33 75.2001 37.1 75.2001C41.2 75.2001 44.6 78.6001 44.6 82.7001Z" fill="var(--fill-0, #DCE1EE)"/>
<g id="User male 2">
<path id="Vector_14" d="M42.1 88.3001C40.8 89.5001 39 90.2001 37.1 90.2001C35.2 90.2001 33.4 89.5001 32.1 88.3001C32.7 88.1001 33.4 87.8001 34.3 87.4001C34.5 87.3001 34.7 87.1001 34.8 86.9001C34.9 86.8001 34.9 86.6001 34.9 86.5001V84.6001L34.8 84.5001C34.6 84.3001 34.5 84.0001 34.5 83.7001L34.3 83.6001C33.8 83.7001 33.9 83.2001 33.7 82.2001C33.7 81.8001 33.7 81.7001 33.9 81.6001L34.1 81.4001C33.2 79.3001 33.6 78.0001 34.6 77.5001C34.3 76.8001 34.3 76.6001 34.3 76.6001C34.3 76.6001 36.3 76.9001 36.9 76.8001C37.8 76.6001 39.1 76.8001 39.6 78.0001C40.4 78.3001 40.7 78.8001 40.8 79.4001C40.9 80.3001 40.4 81.3001 40.3 81.6001C40.4 81.7001 40.5 81.8001 40.4 82.1001C40.3 83.0001 40.3 83.6001 39.8 83.5001L39.4 84.3001C39.4 84.4001 39.4 84.4001 39.4 84.5001C39.4 84.6001 39.4 84.9001 39.4 86.5001C39.4 86.7001 39.5 86.9001 39.5 87.0001C39.6 87.2001 39.8 87.3001 39.9 87.4001C40.8 87.9001 41.5 88.1001 42.1 88.3001Z" fill="var(--fill-0, white)"/>
<g id="Group_7">
<path id="Vector_15" d="M40.3263 81.7001C40.3263 81.4919 40.2222 81.1797 40.1181 80.9715V80.8674C39.7018 80.0348 38.8691 79.7225 38.0365 79.7225C35.9548 79.6185 35.7467 80.0348 35.0181 79.4103C35.2263 79.7225 35.2263 80.2429 34.914 80.8674C34.7059 81.2838 34.2895 81.4919 33.8732 81.596C32.9365 79.4103 33.3528 78.0572 34.3936 77.5368C34.0814 76.8082 34.0814 76.6001 34.0814 76.6001C34.0814 76.6001 36.163 76.9123 36.7875 76.8082C37.7242 76.6001 39.0773 76.8082 39.5977 78.0572C40.4304 78.3695 40.7426 78.8899 40.8467 79.5144C40.9508 80.347 40.4304 81.2838 40.3263 81.7001Z" fill="var(--fill-0, #A2ABBC)"/>
</g>
<path id="Vector_16" d="M39.5 87.1001V87.5001H34.8V87.0001C34.9 86.9001 34.9 86.7001 34.9 86.6001V84.7001L34.8 84.6001V84.5001C34.9 84.7001 35 84.8001 35.2 85.0001L36.7 86.0001C37 86.3001 37.5 86.3001 37.9 86.0001L39.3 84.8001L39.4 84.7001C39.4 84.8001 39.4 85.1001 39.4 86.7001C39.3 86.8001 39.4 87.0001 39.5 87.1001Z" fill="url(#paint1_linear_0_220)"/>
</g>
</g>
<g id="Group_8">
<path id="Vector_17" d="M69.2 80.6001H50C49.5 80.6001 49.2 80.2001 49.2 79.8001V77.3001C49.2 76.8001 49.6 76.5001 50 76.5001H69.2C69.7 76.5001 70 76.9001 70 77.3001V79.8001C70 80.2001 69.7 80.6001 69.2 80.6001Z" fill="var(--fill-0, #CED6E2)"/>
<path id="Vector_18" d="M92 89.1001H50C49.5 89.1001 49.2 88.7001 49.2 88.3001V85.8001C49.2 85.3001 49.6 85.0001 50 85.0001H92C92.5 85.0001 92.8 85.4001 92.8 85.8001V88.3001C92.8 88.7001 92.4 89.1001 92 89.1001Z" fill="var(--fill-0, #CED6E2)"/>
</g>
</g>
<g id="Group_9">
<g id="Vector_19" filter="url(#filter2_d_0_220)">
<path d="M99 63.1H12.4C10.5 63.1 9 61.6001 9 59.7001V40.2001C9 38.3001 10.5 36.8 12.4 36.8H99C100.9 36.8 102.4 38.3001 102.4 40.2001V59.7001C102.5 61.6001 100.9 63.1 99 63.1Z" fill="var(--fill-0, white)"/>
</g>
<g id="Group_10">
<path id="Vector_20" d="M54.6 47.7001H35.4C34.9 47.7001 34.6 47.3 34.6 46.9V44.4C34.6 43.9 35 43.6 35.4 43.6H54.6C55.1 43.6 55.4 44 55.4 44.4V46.9C55.4 47.4 55.1 47.7001 54.6 47.7001Z" fill="var(--fill-0, #CED6E2)"/>
<path id="Vector_21" d="M77.4 56.3H35.4C34.9 56.3 34.6 55.9 34.6 55.5V53C34.6 52.5 35 52.2001 35.4 52.2001H77.3C77.8 52.2001 78.1 52.6 78.1 53V55.5C78.2 55.9 77.8 56.3 77.4 56.3Z" fill="var(--fill-0, #CED6E2)"/>
</g>
<g id="User female 1">
<path id="Vector_22" d="M30.1 49.9C30.1 52 29.2 53.9 27.8 55.3C27.7 55.4 27.7 55.4 27.6 55.5C26.3 56.7 24.5 57.4 22.6 57.4C20.7 57.4 19 56.7 17.7 55.6C17.7 55.6 17.7 55.6 17.6 55.6C16 54.2 15 52.2 15 49.9C15 45.8 18.4 42.4 22.5 42.4C26.7 42.4 30.1 45.8 30.1 49.9Z" fill="var(--fill-0, #DCE1EE)"/>
<g id="Group_11">
<path id="Vector_23" d="M27.7707 55.4523C27.4664 54.7424 26.9594 54.134 26.1481 53.7283C25.7425 53.5255 25.4382 53.4241 24.9312 53.4241H24.627C23.9171 53.4241 23.8157 53.3227 23.8157 53.3227V52.1058C24.627 51.4973 25.2354 50.686 25.4382 49.7734C25.9453 49.6719 26.2495 49.2663 26.1481 48.7593C26.1481 48.5564 25.9453 48.3536 25.9453 48.1508C25.9453 48.0494 25.9453 47.948 25.9453 47.8466C25.9453 47.7452 25.9453 47.7452 25.9453 47.6438C25.9453 47.5423 25.9453 47.5423 25.9453 47.4409C25.9453 47.0353 25.8439 46.7311 25.5397 46.3254C24.9312 45.2099 23.7143 44.5 22.396 44.5C22.0917 44.5 21.8889 44.5 21.5847 44.6015C21.0776 44.7029 20.672 44.9057 20.2663 45.2099C20.1649 45.3113 20.1649 45.3113 20.0635 45.4127C20.0635 45.4127 20.0635 45.4127 19.9621 45.5141C19.5565 45.9198 19.2523 46.4268 19.0494 46.9339C18.8466 47.4409 18.8466 48.0494 18.8466 48.6578C18.8466 48.6578 18.8466 48.6579 18.8466 48.7593C18.8466 48.8607 18.8466 48.8607 18.8466 48.9621C18.8466 48.9621 18.8466 49.0635 18.7452 49.0635C18.948 48.8607 18.8466 49.1649 18.948 49.3677C19.1508 49.8748 19.4551 49.7734 19.8607 50.0776C19.8607 50.0776 19.8607 50.0776 19.7593 50.0776L19.3537 50.179C17.1226 50.8889 16.9198 53.2213 19.1508 53.7283C18.948 53.8297 18.8466 53.9312 18.7452 53.9312C18.1367 54.4382 17.7311 55.0467 17.5283 55.6551C18.8466 56.7706 20.5706 57.4805 22.4974 57.4805C24.4242 57.4805 26.2495 56.7706 27.5679 55.5537C27.6693 55.6551 27.7707 55.5537 27.7707 55.4523C27.8721 55.4523 27.8721 55.4523 27.7707 55.4523ZM21.4833 53.0185C21.3819 52.9171 21.2804 52.8157 21.2804 52.8157C21.179 52.7142 21.0776 52.7142 20.9762 52.6128C20.9762 52.6128 20.8748 52.6128 20.8748 52.5114C20.5706 52.3086 20.2663 52.1058 20.1649 51.8016C20.1649 51.7001 20.2663 51.4973 20.4692 51.2945C20.5706 51.3959 20.672 51.4973 20.7734 51.7001C20.8748 51.8016 20.9762 51.903 21.0776 52.0044C21.179 52.0044 21.2804 52.1058 21.2804 52.2072C21.2804 52.2072 21.2804 52.2072 21.3819 52.2072C21.3819 52.2072 21.3819 52.2072 21.4833 52.2072V53.0185V53.0185Z" fill="var(--fill-0, white)"/>
<path id="Vector_24" d="M24.75 53.3661C24.65 53.7661 24.45 54.0661 24.45 54.0661L20.65 53.4661L20.85 52.4661C20.85 52.4661 20.95 52.4661 20.95 52.5661C21.05 52.6661 21.15 52.6661 21.25 52.7661C21.35 52.7661 21.35 52.8661 21.45 52.9661V52.2661C21.45 52.2661 21.45 52.2661 21.35 52.2661C21.95 52.5661 22.75 52.7661 23.85 52.0661V53.2661C23.95 53.2661 24.05 53.3661 24.75 53.3661Z" fill="url(#paint2_linear_0_220)"/>
</g>
<path id="Vector_25" d="M23.9598 47.7886C24.6732 47.7886 25.3866 47.6866 25.9981 47.4828C25.9981 47.4828 25.9981 47.3809 26.1 47.279C25.9981 46.9732 25.8962 46.5656 25.6923 46.1579C25.0808 45.0369 23.8579 44.3234 22.533 44.3234C22.2272 44.3234 21.9339 44.3452 21.525 44.4472C20.9808 44.6135 20.7281 44.7597 20.5992 44.8378C20.5992 44.8378 20.3013 45.0381 20.087 45.2407C19.8727 45.4433 19.3736 46.1579 19.1698 46.6675C18.9659 47.279 18.8015 47.7987 18.9034 48.4102C19.0053 48.4102 19.1698 48.2981 19.2717 48.2981C20.087 47.8905 20.6985 47.3809 21.0042 46.5656C21.8196 47.279 22.8387 47.6866 23.9598 47.7886Z" fill="var(--fill-0, #A2ABBC)"/>
<path id="Vector_26" d="M20.5 51.4C20.6 51.5 20.7 51.6001 20.8 51.7001C20.7 51.6001 20.6 51.5 20.5 51.4Z" fill="var(--fill-0, #3973F4)"/>
<path id="Vector_27" d="M21.9 55.1C21.6 55.5 21.1 55.5 20.6 55.5C21.1 55 20.8 53.5001 19.2 53.7001C16.9 53.3001 17.2 50.9001 19.4 50.2001L19.8 50.1C19.8 50.1 19.8 50.1001 19.9 50.2001C20.1 50.7001 20.3 51 20.6 51.4C19.7 52.2 21 52.4 21.6 53C22 53.2 22.4 54.5 21.9 55.1Z" fill="var(--fill-0, #A2ABBC)"/>
</g>
</g>
</g>
<defs>
<filter id="filter0_d_0_220" x="14.6" y="0" width="111.404" height="44.3" filterUnits="userSpaceOnUse" color-interpolation-filters="sRGB">
<feFlood flood-opacity="0" result="BackgroundImageFix"/>
<feColorMatrix in="SourceAlpha" type="matrix" values="0 0 0 0 0 0 0 0 0 0 0 0 0 0 0 0 0 0 127 0" result="hardAlpha"/>
<feOffset dy="5"/>
<feGaussianBlur stdDeviation="4.5"/>
<feColorMatrix type="matrix" values="0 0 0 0 0.397708 0 0 0 0 0.47749 0 0 0 0 0.575 0 0 0 0.17 0"/>
<feBlend mode="normal" in2="BackgroundImageFix" result="effect1_dropShadow_0_220"/>
<feBlend mode="normal" in="SourceGraphic" in2="effect1_dropShadow_0_220" result="shape"/>
</filter>
<filter id="filter1_d_0_220" x="14.6" y="65.6001" width="111.404" height="44.3" filterUnits="userSpaceOnUse" color-interpolation-filters="sRGB">
<feFlood flood-opacity="0" result="BackgroundImageFix"/>
<feColorMatrix in="SourceAlpha" type="matrix" values="0 0 0 0 0 0 0 0 0 0 0 0 0 0 0 0 0 0 127 0" result="hardAlpha"/>
<feOffset dy="5"/>
<feGaussianBlur stdDeviation="4.5"/>
<feColorMatrix type="matrix" values="0 0 0 0 0.397708 0 0 0 0 0.47749 0 0 0 0 0.575 0 0 0 0.17 0"/>
<feBlend mode="normal" in2="BackgroundImageFix" result="effect1_dropShadow_0_220"/>
<feBlend mode="normal" in="SourceGraphic" in2="effect1_dropShadow_0_220" result="shape"/>
</filter>
<filter id="filter2_d_0_220" x="0" y="32.8" width="111.404" height="44.3" filterUnits="userSpaceOnUse" color-interpolation-filters="sRGB">
<feFlood flood-opacity="0" result="BackgroundImageFix"/>
<feColorMatrix in="SourceAlpha" type="matrix" values="0 0 0 0 0 0 0 0 0 0 0 0 0 0 0 0 0 0 127 0" result="hardAlpha"/>
<feOffset dy="5"/>
<feGaussianBlur stdDeviation="4.5"/>
<feColorMatrix type="matrix" values="0 0 0 0 0.397708 0 0 0 0 0.47749 0 0 0 0 0.575 0 0 0 0.17 0"/>
<feBlend mode="normal" in2="BackgroundImageFix" result="effect1_dropShadow_0_220"/>
<feBlend mode="normal" in="SourceGraphic" in2="effect1_dropShadow_0_220" result="shape"/>
</filter>
<linearGradient id="paint0_linear_0_220" x1="37.1514" y1="21.9183" x2="37.1514" y2="20.2656" gradientUnits="userSpaceOnUse">
<stop stop-color="white"/>
<stop offset="1" stop-color="#E2E5EC"/>
</linearGradient>
<linearGradient id="paint1_linear_0_220" x1="37.1514" y1="87.5184" x2="37.1514" y2="85.8657" gradientUnits="userSpaceOnUse">
<stop stop-color="white"/>
<stop offset="1" stop-color="#E2E5EC"/>
</linearGradient>
<linearGradient id="paint2_linear_0_220" x1="22.7012" y1="54.0783" x2="22.7012" y2="52.9765" gradientUnits="userSpaceOnUse">
<stop stop-color="white"/>
<stop offset="1" stop-color="#E2E5EC"/>
</linearGradient>
</defs>
</svg>
